<?xml version="1.0" standalone="no"?>
<!DOCTYPE svg PUBLIC "-//W3C//DTD SVG 20010904//EN"
 "http://www.w3.org/TR/2001/REC-SVG-20010904/DTD/svg10.dtd">
<svg version="1.0" xmlns="http://www.w3.org/2000/svg"
 width="698.000000pt" height="698.000000pt" viewBox="0 0 698.000000 698.000000"
 preserveAspectRatio="xMidYMid meet">
<metadata>
Created by potrace 1.11, written by Peter Selinger 2001-2013
</metadata>
<g transform="translate(0.000000,698.000000) scale(0.100000,-0.100000)"
fill="#000000" stroke="none">
<path d="M458 6964 c-77 -18 -177 -68 -236 -118 -71 -59 -162 -189 -177 -252
-3 -10 -11 -45 -19 -76 -11 -46 -16 -214 -6 -225 2 -2 3 -6 4 -10 10 -50 35
-117 58 -154 15 -25 28 -49 28 -53 0 -10 -74 65 1530 -1541 1276 -1277 1494
-1491 1553 -1525 38 -22 74 -40 81 -40 7 0 16 -4 22 -9 39 -38 335 -33 399 7
5 3 15 7 21 8 7 1 36 18 66 37 142 90 222 199 262 355 36 137 15 309 -51 414
-13 21 -23 43 -23 49 0 7 -683 694 -1518 1528 -1485 1484 -1519 1517 -1592
1553 -41 19 -93 41 -115 48 -57 19 -219 21 -287 4z"/>
<path d="M3428 6975 c-2 -2 -19 -6 -40 -9 -172 -27 -343 -158 -420 -322 -29
-61 -31 -70 -47 -154 -10 -53 -7 -168 7 -225 15 -63 50 -143 84 -194 34 -49
2978 -2998 3038 -3042 91 -68 220 -110 335 -110 44 0 91 3 105 6 14 3 35 8 48
11 192 40 379 234 421 440 12 57 11 212 -2 259 -18 69 -55 145 -96 198 -47 62
-2933 2955 -3013 3020 -48 40 -150 89 -220 107 -41 11 -193 22 -200 15z"/>
<path d="M6328 6974 c-2 -1 -19 -4 -38 -8 -65 -10 -130 -29 -130 -38 0 -4 -7
-8 -16 -8 -20 0 -124 -71 -157 -107 -30 -32 -74 -83 -85 -98 -20 -27 -74 -158
-78 -192 -30 -212 9 -364 131 -511 60 -72 210 -162 294 -177 19 -3 37 -8 41
-10 18 -11 183 -5 245 9 36 8 109 39 137 58 14 10 30 18 36 18 18 0 148 135
176 183 29 49 60 124 72 174 10 38 11 210 2 255 -15 72 -72 191 -115 236 -7 7
-18 21 -25 31 -21 28 -117 100 -170 127 -69 35 -152 55 -240 58 -43 2 -79 2
-80 0z"/>
<path d="M525 4073 c-193 -23 -388 -169 -464 -348 -48 -114 -63 -288 -31 -370
6 -16 11 -30 10 -30 -11 0 51 -132 76 -160 13 -16 24 -31 24 -34 0 -4 102
-107 226 -231 125 -124 233 -232 241 -241 9 -9 579 -580 1269 -1270 713 -712
1277 -1269 1309 -1290 57 -39 141 -74 203 -87 45 -8 208 -7 242 2 14 4 32 9
40 11 8 2 16 4 18 5 1 2 6 3 11 4 31 4 152 79 196 121 79 77 148 180 159 238
2 15 7 31 10 36 18 29 26 187 13 265 -9 54 -43 141 -79 202 -21 35 -520 539
-1547 1565 -1493 1491 -1517 1515 -1593 1552 -42 20 -86 37 -97 37 -11 0 -22
4 -25 8 -3 5 -20 9 -38 10 -18 1 -58 3 -88 5 -30 2 -68 1 -85 0z"/>
<path d="M548 1165 c-2 -2 -25 -6 -51 -9 -175 -24 -345 -150 -426 -319 -22
-45 -43 -100 -47 -122 -10 -52 -11 -200 -2 -245 11 -55 13 -63 31 -104 9 -21
17 -40 17 -43 0 -17 90 -130 136 -171 45 -41 168 -115 194 -117 3 -1 14 -4 25
-7 58 -19 225 -31 250 -19 6 3 19 7 30 8 43 6 122 36 175 66 58 33 180 144
180 164 0 6 4 13 9 15 12 4 59 101 78 157 8 25 16 92 18 148 6 171 -48 306
-170 428 -89 88 -194 143 -307 160 -46 7 -136 14 -140 10z"/>
<path d="M6295 1155 c-132 -22 -246 -84 -334 -182 -51 -57 -116 -169 -125
-216 -2 -15 -7 -31 -11 -37 -13 -21 -17 -171 -6 -233 20 -115 93 -254 165
-316 15 -14 33 -30 40 -36 27 -26 119 -77 170 -95 281 -99 587 25 714 291 48
100 54 126 57 246 4 162 -50 299 -165 413 -137 139 -314 196 -505 165z"/>
</g>
</svg>
