<svg xmlns="http://www.w3.org/2000/svg" width="348" height="349">
  <defs>
    <linearGradient id="grd1" gradientUnits="userSpaceOnUse" x1="118.786" y1="-171.079" x2="525.277" y2="235.411">
      <stop offset="0" stop-color="#1190fc"/>
      <stop offset="1" stop-color="#8452ea"/>
    </linearGradient>
    <linearGradient id="grd2" gradientUnits="userSpaceOnUse" x1="-26.534" y1="-25.759" x2="379.956" y2="380.732">
      <stop offset="0" stop-color="#1190fc"/>
      <stop offset="1" stop-color="#8452ea"/>
    </linearGradient>
    <linearGradient id="grd3" gradientUnits="userSpaceOnUse" x1="-171.557" y1="119.263" x2="234.934" y2="525.754">
      <stop offset="0" stop-color="#1190fc"/>
      <stop offset="1" stop-color="#8452ea"/>
    </linearGradient>
    <linearGradient id="grd4" gradientUnits="userSpaceOnUse" x1="-26.106" y1="-26.188" x2="380.385" y2="380.303">
      <stop offset="0" stop-color="#1190fc"/>
      <stop offset="1" stop-color="#8452ea"/>
    </linearGradient>
    <linearGradient id="grd5" gradientUnits="userSpaceOnUse" x1="-98.703" y1="46.41" x2="307.787" y2="452.9">
      <stop offset="0" stop-color="#1190fc"/>
      <stop offset="1" stop-color="#8452ea"/>
    </linearGradient>
    <linearGradient id="grd6" gradientUnits="userSpaceOnUse" x1="46.361" y1="-98.655" x2="452.852" y2="307.836">
      <stop offset="0" stop-color="#1190fc"/>
      <stop offset="1" stop-color="#8452ea"/>
    </linearGradient>
  </defs>
  <style>
    .shp6{fill:#222c52}
  </style>
  <g id="Logo_elements">
    <g id="Logo_mark">
      <g id="Dots">
        <path id="XMLID_79_" d="M319 58.17c-16.04 0-29-12.96-29-29 0-16.03 12.96-29 29-29s29 12.97 29 29c0 16.04-12.96 29-29 29Z" style="fill:url(#grd1)"/>
        <path id="XMLID_86_" d="M319 348.78c-16.04 0-29-12.97-29-29 0-16.04 12.96-29 29-29s29 12.96 29 29c0 16.03-12.96 29-29 29Z" style="fill:url(#grd2)"/>
        <path id="XMLID_85_" d="M29 348.78c-16.04 0-29-12.97-29-29 0-16.04 12.96-29 29-29s29 12.96 29 29c0 16.03-12.96 29-29 29Z" style="fill:url(#grd3)"/>
      </g>
      <g id="Lines">
        <path id="XMLID_82_" d="M194.2 194.08c-11.3 11.3-29.7 11.3-41 0L8.6 49.48c-11.3-11.3-11.3-29.71 0-41 11.3-11.3 29.7-11.3 41 0l144.6 144.6c11.3 11.3 11.3 29.7 0 41Z" style="fill:url(#grd4)"/>
        <path id="XMLID_135_" d="m195.4 340.28-.2.2c-11.3 11.3-29.7 11.3-41 0L8.6 194.88c-11.3-11.3-11.3-29.71 0-41l.2-.21c11.3-11.29 29.7-11.29 41 0l145.6 145.6c11.3 11.3 11.3 29.6 0 41v.01Z" style="fill:url(#grd5)"/>
        <path id="XMLID_136_" d="M339.6 194.67c-11.3 11.3-29.7 11.3-41 0l-145-145c-11.3-11.29-11.3-29.7 0-41s29.7-11.3 41 0l145 145c11.4 11.3 11.4 29.6 0 41Z" style="fill:url(#grd6)"/>
      </g>
    </g>
    <g id="Headline">
      <path id="XMLID_7_" class="shp6" d="M405.9 319.97v-.2c0-15.9 11.9-29 28-29 9.3 0 15.1 3.2 20.6 7.9.4.41.8 1 .8 1.71 0 1.09-1 2.09-2.2 2.09-.6 0-1.1-.2-1.4-.59-4.6-4.21-10-7.3-17.9-7.3-13.5 0-23.6 11-23.6 25.09v.21c0 14.2 10.3 25.2 23.7 25.2 7.6 0 13-2.7 18.3-7.8.3-.3.8-.6 1.4-.6 1 0 2 1 2 2 0 .6-.3 1.1-.6 1.4-5.7 5.3-11.9 8.7-21.2 8.7-16.1.1-27.9-12.7-27.9-28.8v-.01Z"/>
      <path id="XMLID_9_" class="shp6" d="M466.6 293.58c0-1.1 1-2.1 2.1-2.1s2.1 1 2.1 2.1v24.2h35.9v-24.2c0-1.1 1-2.1 2.1-2.1s2.1 1 2.1 2.1v52.59c0 1.1-1 2.1-2.1 2.1s-2.1-1-2.1-2.1v-24.5h-35.9v24.5c0 1.1-1 2.1-2.1 2.1s-2.1-1-2.1-2.1v-52.59Z"/>
      <path id="XMLID_11_" fill-rule="evenodd" class="shp6" d="M524.1 319.97v-.2c0-15.3 11.3-29 28.3-29s28.1 13.5 28.1 28.8v.2c0 15.3-11.3 29-28.3 29-16.9.1-28.1-13.5-28.1-28.8Zm52.1 0v-.2c0-13.9-10.1-25.2-24-25.2s-23.8 11.2-23.8 25.1v.2c0 13.9 10.1 25.2 24 25.2s23.8-11.2 23.8-25.1Z"/>
      <path id="XMLID_14_" fill-rule="evenodd" class="shp6" d="M591.3 319.97v-.2c0-15.3 11.3-29 28.3-29s28.1 13.5 28.1 28.8v.2c0 15.3-11.3 29-28.3 29-16.9.1-28.1-13.5-28.1-28.8Zm52.1 0v-.2c0-13.9-10.1-25.2-24-25.2s-23.8 11.2-23.8 25.1v.2c0 13.9 10.1 25.2 24 25.2s23.8-11.2 23.8-25.1Z"/>
      <path id="XMLID_17_" class="shp6" d="M658.3 340.78c-.4-.3-.8-.9-.8-1.6 0-1.1 1-2.1 2.1-2.1.6 0 1 .2 1.4.5 5.6 5 11.2 7.3 18.9 7.3 8.4 0 14.2-4.7 14.2-11.1v-.2c0-5.9-3.1-9.4-15.9-11.9-13.5-2.7-18.9-7.3-18.9-15.8v-.2c0-8.3 7.6-14.7 18-14.7 7.5 0 12.7 1.9 17.9 5.8.4.3.9.9.9 1.7 0 1.1-1 2.1-2.1 2.1-.5 0-1-.2-1.4-.5-4.9-3.8-9.8-5.3-15.5-5.3-8.3 0-13.7 4.7-13.7 10.6v.2c0 5.9 3 9.5 16.3 12.3 13 2.59 18.4 7.29 18.4 15.5v.2c0 9.09-7.8 15.3-18.6 15.3-8.3-.21-14.8-2.8-21.2-8.1Z"/>
      <path id="XMLID_19_" class="shp6" d="M711 345.78v-51.9c0-1.1 1-2.1 2.1-2.1h36.2c1 0 1.9.9 1.9 1.9 0 1-.9 1.9-1.9 1.9h-34.1v22h30.5c1 0 1.9.9 1.9 1.9 0 1-.9 1.9-1.9 1.9h-30.5v22.5h34.5c1 0 1.9.9 1.9 1.9 0 1-.9 1.9-1.9 1.9h-36.6c-1.1.2-2.1-.8-2.1-1.9Z"/>
      <path id="XMLID_21_" class="shp6" d="m805.3 325.67-21.9-30.79c-.2-.41-.4-.91-.4-1.3 0-1.1 1-2.1 2.2-2.1.9 0 1.4.5 1.9 1.2l20.4 29.2 20.4-29.2c.5-.6 1-1.2 1.8-1.2 1 0 2.1 1 2.1 2 0 .6-.3 1.1-.6 1.6l-21.7 30.5v20.5c0 1.09-1 2.09-2.1 2.09s-2.1-1-2.1-2.09v-20.41Z"/>
      <path id="XMLID_23_" fill-rule="evenodd" class="shp6" d="M836.2 319.97v-.2c0-15.3 11.3-29 28.3-29s28.1 13.5 28.1 28.8v.2c0 15.3-11.3 29-28.3 29-17 .1-28.1-13.5-28.1-28.8Zm52.1 0v-.2c0-13.9-10.1-25.2-24-25.2s-23.8 11.2-23.8 25.1v.2c0 13.9 10.1 25.2 24 25.2 13.8 0 23.8-11.2 23.8-25.1Z"/>
      <path id="XMLID_26_" class="shp6" d="M905 324.58v-31c0-1.1 1-2.1 2.1-2.1s2.1 1 2.1 2.1v30.59c0 13.21 7.1 20.8 19 20.8 11.4 0 18.7-6.9 18.7-20.4v-31c0-1.1 1-2.1 2.1-2.1s2.1 1 2.1 2.1v30.5c0 16.1-9.4 24.7-23 24.7-13.5 0-23.1-8.5-23.1-24.2v.01Z"/>
      <path id="XMLID_28_" fill-rule="evenodd" class="shp6" d="M965.9 293.88c0-1.1 1-2.1 2.1-2.1h21.5c6.9 0 12.4 2.2 15.8 5.5 2.6 2.6 4.2 6.4 4.2 10.4v.2c0 9.4-7 14.7-16.4 16l15.9 20.7c.4.5.6 1 .6 1.4 0 1.1-1 2.2-2.2 2.2-.8 0-1.4-.5-1.8-1.1l-17.2-22.4h-18.3v21.5c0 1.1-1 2.1-2.1 2.1s-2.1-1-2.1-2.1v-52.3Zm23.1 27c9.4 0 16.3-4.71 16.3-12.8v-.2c0-7.5-5.9-12.3-16.1-12.3h-19.1v25.2H989v.1Z"/>
      <path id="XMLID_31_" class="shp6" d="M1043.6 319.97v-.2c0-15.9 11.9-29 28-29 9.3 0 15.1 3.2 20.6 7.9.4.41.8 1 .8 1.71 0 1.09-1 2.09-2.2 2.09-.6 0-1.1-.2-1.4-.59-4.6-4.21-10-7.3-17.9-7.3-13.5 0-23.6 11-23.6 25.09v.21c0 14.2 10.3 25.2 23.7 25.2 7.6 0 13-2.7 18.3-7.8.3-.3.8-.6 1.4-.6 1 0 2 1 2 2 0 .6-.3 1.1-.6 1.4-5.7 5.3-11.9 8.7-21.2 8.7-16 .1-27.9-12.7-27.9-28.8v-.01Z"/>
      <path id="XMLID_33_" fill-rule="evenodd" class="shp6" d="M1100.3 319.97v-.2c0-15.3 11.3-29 28.3-29s28.1 13.5 28.1 28.8v.2c0 15.3-11.3 29-28.3 29-17 .1-28.1-13.5-28.1-28.8Zm52 0v-.2c0-13.9-10.1-25.2-24-25.2s-23.8 11.2-23.8 25.1v.2c0 13.9 10.1 25.2 24 25.2s23.8-11.2 23.8-25.1Z"/>
      <path id="XMLID_36_" class="shp6" d="M1170 293.58c0-1.1 1-2.1 2.1-2.1h.6c.9 0 1.5.5 2.1 1.2l37.8 48v-47.3c0-1.1.9-2 2-2s2 .9 2 2v52.9c0 1-.7 1.8-1.7 1.8h-.3c-.8 0-1.4-.6-2.1-1.41l-38.5-48.9v48.3c0 1.1-.9 2-2 2s-2-.9-2-2v-52.49Z"/>
      <path id="XMLID_38_" class="shp6" d="M1232.4 293.58c0-1.1 1-2.1 2.1-2.1h.6c.9 0 1.5.5 2.1 1.2l37.8 48v-47.3c0-1.1.9-2 2-2s2 .9 2 2v52.9c0 1-.7 1.8-1.7 1.8h-.3c-.8 0-1.4-.6-2.1-1.41l-38.5-48.9v48.3c0 1.1-.9 2-2 2s-2-.9-2-2v-52.49Z"/>
      <path id="XMLID_40_" class="shp6" d="M1294.8 345.78v-51.9c0-1.1 1-2.1 2.1-2.1h36.2c1 0 1.9.9 1.9 1.9 0 1-.9 1.9-1.9 1.9H1299v22h30.5c1 0 1.9.9 1.9 1.9 0 1-.9 1.9-1.9 1.9H1299v22.5h34.5c1 0 1.9.9 1.9 1.9 0 1-.9 1.9-1.9 1.9h-36.6c-1.1.2-2.1-.8-2.1-1.9Z"/>
      <path id="XMLID_42_" class="shp6" d="M1345.1 319.97v-.2c0-15.9 11.9-29 28-29 9.3 0 15.1 3.2 20.6 7.9.4.41.8 1 .8 1.71 0 1.09-1 2.09-2.2 2.09-.6 0-1.1-.2-1.4-.59-4.6-4.21-10-7.3-17.9-7.3-13.5 0-23.6 11-23.6 25.09v.21c0 14.2 10.3 25.2 23.7 25.2 7.6 0 13-2.7 18.3-7.8.3-.3.8-.6 1.4-.6 1 0 2 1 2 2 0 .6-.3 1.1-.6 1.4-5.7 5.3-11.9 8.7-21.2 8.7-16 .1-27.9-12.7-27.9-28.8v-.01Z"/>
      <path id="XMLID_44_" class="shp6" d="M1421.4 295.67h-17.9c-1 0-1.9-.9-1.9-1.9 0-1 .9-1.9 1.9-1.9h40.1c1 0 1.9.9 1.9 1.9 0 1-.9 1.9-1.9 1.9h-17.9v50.5c0 1.1-1 2.1-2.1 2.1s-2.1-1-2.1-2.1v-50.5h-.1Z"/>
      <path id="XMLID_53_" class="shp6" d="M1457.4 293.58c0-1.1 1-2.1 2.1-2.1s2.1 1 2.1 2.1v52.59c0 1.1-1 2.1-2.1 2.1s-2.1-1-2.1-2.1v-52.59Z"/>
      <path id="XMLID_93_" fill-rule="evenodd" class="shp6" d="M1475.5 319.97v-.2c0-15.3 11.3-29 28.3-29s28.1 13.5 28.1 28.8v.2c0 15.3-11.3 29-28.3 29-17 .1-28.1-13.5-28.1-28.8Zm52 0v-.2c0-13.9-10.1-25.2-24-25.2s-23.8 11.2-23.8 25.1v.2c0 13.9 10.1 25.2 24 25.2s23.8-11.2 23.8-25.1Z"/>
      <path id="XMLID_96_" class="shp6" d="M1545.2 293.58c0-1.1 1-2.1 2.1-2.1h.6c.9 0 1.5.5 2.1 1.2l37.8 48v-47.3c0-1.1.9-2 2-2s2 .9 2 2v52.9c0 1-.7 1.8-1.7 1.8h-.3c-.8 0-1.4-.6-2.1-1.41l-38.5-48.9v48.3c0 1.1-.9 2-2 2s-2-.9-2-2v-52.49Z"/>
      <path id="XMLID_48_" class="shp6" d="M1611.1 348.88c-1.6 0-2.9-1.3-2.9-2.91 0-1.6 1.3-2.9 2.9-2.9 1.6 0 2.9 1.3 2.9 2.9 0 1.61-1.3 2.91-2.9 2.91Z"/>
    </g>
    <g id="Logo_title_1_">
      <g id="Digital">
        <path id="XMLID_132_" fill-rule="evenodd" class="shp6" d="M405.9 139.17c0-5.9 4.7-10.7 10.7-10.7h27.1c30.4 0 51.5 20.9 51.5 48.2v.3c0 27.3-21 48.41-51.5 48.41h-27.1c-5.9 0-10.7-4.71-10.7-10.71v-75.5Zm37.7 66.91c17.4 0 29.2-11.8 29.2-28.9v-.3c0-17.2-11.8-29.2-29.2-29.2h-16.5v58.4h16.5Z"/>
        <path id="XMLID_130_" class="shp6" d="M513.5 138.27c0-5.89 4.7-10.7 10.7-10.7 5.9 0 10.7 4.7 10.7 10.7v77.2c0 6-4.7 10.7-10.7 10.7-6 0-10.7-4.7-10.7-10.7v-77.2Z"/>
        <path id="XMLID_128_" class="shp6" d="M553.2 177.17v-.29c0-27.5 21.4-50.11 50.8-50.11 14.7 0 24.4 3.3 33.1 9.4 2.1 1.5 4.4 4.4 4.4 8.6 0 5.8-4.7 10.5-10.5 10.5-3 0-5-1.1-6.5-2.2-5.8-4.2-12-6.6-21.2-6.6-15.5 0-27.8 13.7-27.8 30.2v.3c0 17.7 12.2 30.7 29.3 30.7 7.7 0 14.7-1.9 20.1-5.79v-13.8h-14.4c-5.1 0-9.3-4-9.3-9.1s4.2-9.3 9.3-9.3h24.4c5.9 0 10.7 4.7 10.7 10.7v23.5c0 6.2-2.4 10.5-7.5 13.59-7.9 4.8-19.4 9.7-33.9 9.7-30.2-.2-51-21.4-51-50Z"/>
        <path id="XMLID_126_" class="shp6" d="M665.5 138.27c0-5.89 4.7-10.7 10.7-10.7 5.9 0 10.7 4.7 10.7 10.7v77.2c0 6-4.7 10.7-10.7 10.7-6 0-10.7-4.7-10.7-10.7v-77.2Z"/>
        <path id="XMLID_124_" class="shp6" d="M732 148.08h-20.5c-5.4 0-9.8-4.4-9.8-9.8s4.4-9.8 9.8-9.8h62.3c5.4 0 9.8 4.4 9.8 9.8s-4.4 9.8-9.8 9.8h-20.5v67.4c0 6-4.7 10.7-10.7 10.7-6 0-10.7-4.7-10.7-10.7v-67.4h.1Z"/>
        <path id="XMLID_121_" fill-rule="evenodd" class="shp6" d="M815.6 135.47c2.4-5.3 6.6-8.4 12.5-8.4h1.2c5.8 0 10 3.2 12.3 8.4l33.8 76.2c.7 1.5 1.1 2.91 1.1 4.3 0 5.7-4.4 10.2-10.1 10.2-5 0-8.3-2.9-10.2-7.29l-6.5-15.21h-42.6l-6.8 15.91c-1.8 4.2-5.4 6.59-9.8 6.59-5.5 0-9.8-4.4-9.8-10-.1-1.5.4-3 1.1-4.5l33.8-76.2Zm26.1 49.3-13.4-32-13.4 32h26.8Z"/>
        <path id="XMLID_119_" class="shp6" d="M891.7 138.27c0-5.89 4.7-10.7 10.7-10.7 6 0 10.7 4.7 10.7 10.7v67.7h39.4c5.4 0 9.7 4.3 9.7 9.7 0 5.41-4.3 9.71-9.7 9.71h-50.1c-6 0-10.7-4.71-10.7-10.71v-76.4Z"/>
      </g>
      <g id="Bridges">
        <path id="XMLID_115_" fill-rule="evenodd" class="shp6" d="M1011 132.08c0-1.9 1.7-3.6 3.6-3.6h36.4c10.9 0 19.8 3.2 25.2 8.6 4 4 6.2 9.1 6.2 15.2v.3c0 13.1-8.6 19.8-16.5 23 11.6 3 21.9 9.7 21.9 23.09v.3c0 16.2-13.8 26.41-34.7 26.41h-38.5c-1.9 0-3.6-1.71-3.6-3.6v-89.7Zm39.2 41.1c14.5 0 24.9-7.1 24.9-19.9v-.3c0-10.7-8.7-17.9-24.2-17.9h-32.7v38.1h32Zm3.1 45.5c16.6 0 27.1-7.6 27.1-19.8v-.3c0-11.9-10.4-18.8-29.5-18.8h-32.8v38.9h35.2Z"/>
        <path id="XMLID_112_" fill-rule="evenodd" class="shp6" d="M1109.4 132.08c0-1.9 1.7-3.6 3.6-3.6h37.1c11.9 0 21.4 3.7 27.3 9.5 4.6 4.6 7.3 11.1 7.3 18v.29c0 16.21-12 25.5-28.4 27.71l27.5 35.69c.7.8 1.1 1.71 1.1 2.5 0 1.91-1.8 3.71-3.7 3.71-1.4 0-2.4-.8-3.2-1.91l-29.7-38.7h-31.7v37.1c0 1.9-1.7 3.6-3.6 3.6-1.9 0-3.6-1.7-3.6-3.6v-90.29Zm39.8 46.6c16.2 0 28.2-8.2 28.2-22.1v-.3c0-13-10.2-21.2-27.8-21.2h-33.1v43.6h32.7Z"/>
        <path id="XMLID_110_" class="shp6" d="M1208.9 131.48c0-1.9 1.7-3.6 3.6-3.6 1.9 0 3.6 1.7 3.6 3.6v90.8c0 1.9-1.7 3.6-3.6 3.6-1.9 0-3.6-1.71-3.6-3.6v-90.8Z"/>
        <path id="XMLID_107_" fill-rule="evenodd" class="shp6" d="M1244.3 132.08c0-1.9 1.7-3.6 3.6-3.6h28.6c30.4 0 51.5 20.9 51.5 48.2v.3c0 27.3-21 48.4-51.5 48.4h-28.6c-1.9 0-3.6-1.71-3.6-3.6v-89.7Zm32.2 86.59c27 0 44-18.4 44-41.5v-.29c0-23-17-41.8-44-41.8h-25v83.59h25Z"/>
        <path id="XMLID_105_" class="shp6" d="M1346.7 177.17v-.29c0-26.21 19-50.11 47.9-50.11 14.5 0 24.1 4 33.1 10.8.8.7 1.4 1.7 1.4 2.9 0 1.9-1.7 3.6-3.6 3.6-.6 0-1.4-.3-2.2-1-7.5-5.8-15.6-9.8-29.1-9.8-23.5 0-40 19.9-40 43.3v.3c0 25.01 15.6 43.7 41.5 43.7 12.3 0 23.8-5.1 30.9-11.1v-27.8h-30.2c-1.8 0-3.3-1.5-3.3-3.29 0-1.8 1.5-3.3 3.3-3.3h33.5c1.9 0 3.6 1.7 3.6 3.6v31.7c0 1.4-1 2.9-2.5 4.2-9.1 7.09-21.2 12.5-35.6 12.5-30.6-.1-48.7-22.6-48.7-49.9v-.01Z"/>
        <path id="XMLID_103_" class="shp6" d="M1457.9 221.78v-89.7c0-1.9 1.7-3.6 3.6-3.6h62.5c1.8 0 3.3 1.5 3.3 3.29 0 1.8-1.5 3.3-3.3 3.3h-58.9v38.1h52.7c1.8 0 3.3 1.5 3.3 3.3 0 1.8-1.5 3.3-3.3 3.3h-52.7v38.9h59.6c1.8 0 3.3 1.5 3.3 3.3 0 1.8-1.5 3.3-3.3 3.3h-63.2c-1.9.1-3.6-1.6-3.6-3.5v.01Z"/>
        <path id="XMLID_101_" class="shp6" d="M1545.1 213.17c-.7-.59-1.4-1.5-1.4-2.79 0-1.91 1.7-3.6 3.6-3.6 1 0 1.8.4 2.4.8 9.7 8.7 19.4 12.59 32.7 12.59 14.5 0 24.5-8.2 24.5-19.2v-.3c0-10.2-5.4-16.2-27.4-20.6-23.2-4.7-32.7-12.6-32.7-27.3v-.29c0-14.4 13.1-25.5 31.1-25.5 13 0 22 3.29 30.9 10 .7.6 1.5 1.5 1.5 2.9 0 1.89-1.7 3.6-3.6 3.6-.8 0-1.7-.3-2.4-.8-8.4-6.5-16.9-9.1-26.7-9.1-14.3 0-23.7 8.2-23.7 18.3v.29c0 10.21 5.3 16.5 28.2 21.21 22.4 4.6 31.8 12.6 31.8 26.7v.3c0 15.59-13.4 26.4-32.1 26.4-14.4-.1-25.8-4.6-36.7-13.6v-.01Z"/>
      </g>
    </g>
  </g>
</svg>
